<svg width="1440" height="163" viewBox="0 0 1440 163" fill="none" xmlns="http://www.w3.org/2000/svg">
<path fill-rule="evenodd" clip-rule="evenodd" d="M879.628 38.1928C911.929 38.1928 940.643 28.8827 958.875 14.4459C977.106 28.8827 1005.82 38.1928 1038.12 38.1928C1069.88 38.1928 1098.17 29.1944 1116.44 15.1726C1134.71 29.1944 1162.99 38.1928 1194.75 38.1928C1227.05 38.1928 1255.76 28.8827 1274 14.4459C1292.23 28.8827 1320.94 38.1928 1353.24 38.1928C1390.42 38.1928 1422.84 25.8622 1440 7.57735V131.77C1422.84 150.055 1390.42 162.386 1353.24 162.386C1320.94 162.386 1292.23 153.075 1274 138.639C1255.76 153.075 1227.05 162.386 1194.75 162.386C1162.99 162.386 1134.71 153.387 1116.44 139.365C1098.17 153.387 1069.88 162.386 1038.12 162.386C1005.82 162.386 977.106 153.075 958.875 138.639C940.643 153.075 911.929 162.386 879.628 162.386C847.873 162.386 819.584 153.387 801.314 139.365C783.044 153.387 754.755 162.386 723 162.386C690.7 162.386 661.985 153.075 643.754 138.639C625.522 153.075 596.807 162.386 564.507 162.386C532.752 162.386 504.463 153.387 486.193 139.365C467.923 153.387 439.634 162.386 407.879 162.386C375.578 162.386 346.864 153.075 328.632 138.639C310.401 153.075 281.686 162.386 249.386 162.386C217.631 162.386 189.341 153.387 171.072 139.365C152.802 153.387 124.512 162.386 92.7573 162.386C50.653 162.386 14.6411 146.566 0 124.193V0C14.6411 22.3732 50.653 38.1928 92.7573 38.1928C124.512 38.1928 152.802 29.1944 171.072 15.1727C189.341 29.1944 217.631 38.1928 249.386 38.1928C281.686 38.1928 310.401 28.8827 328.632 14.4459C346.864 28.8827 375.578 38.1928 407.879 38.1928C439.634 38.1928 467.923 29.1944 486.193 15.1727C504.463 29.1944 532.752 38.1928 564.507 38.1928C596.807 38.1928 625.522 28.8827 643.754 14.4459C661.985 28.8827 690.7 38.1928 723 38.1928C754.755 38.1928 783.044 29.1944 801.314 15.1727C819.584 29.1944 847.873 38.1928 879.628 38.1928Z" fill="#F7FF9D"/>
</svg>
